<?xml version="1.0" standalone="no"?><!-- Generator: Adobe Fireworks CS6, Export SVG Extension by Aaron Beall (http://fireworks.abeall.com) . Version: 0.6.1  --><!DOCTYPE svg PUBLIC "-//W3C//DTD SVG 1.1//EN" "http://www.w3.org/Graphics/SVG/1.1/DTD/svg11.dtd"><svg id="domainswitch-icon-2-Page%201" viewBox="0 0 100 100" style="background-color:#ffffff00" version="1.1"	xmlns="http://www.w3.org/2000/svg" xmlns:xlink="http://www.w3.org/1999/xlink" xml:space="preserve"	x="0px" y="0px" width="100px" height="100px">	<g id="Layer%201">		<g visibility="hidden">			<path d="M 5 0 L 5 0 C 7.7615 0 10 2.2117 10 4.94 L 10 30.06 C 10 32.7883 7.7615 35 5 35 L 5 35 C 2.2385 35 0 32.7883 0 30.06 L 0 4.94 C 0 2.2117 2.2385 0 5 0 Z" fill="#cccccc"/>			<path d="M 91 6 L 91 6 C 91 8.7615 88.7883 11 86.06 11 L 60.94 11 C 58.2117 11 56 8.7615 56 6 L 56 6 C 56 3.2385 58.2117 1 60.94 1 L 86.06 1 C 88.7883 1 91 3.2385 91 6 Z" fill="#cccccc"/>			<path d="M 35 5 L 35 5 C 35 7.7615 32.7883 10 30.06 10 L 4.94 10 C 2.2117 10 0 7.7615 0 5 L 0 5 C 0 2.2385 2.2117 0 4.94 0 L 30.06 0 C 32.7883 0 35 2.2385 35 5 Z" fill="#cccccc"/>		</g>		<g visibility="hidden">			<g>				<path d="M 86 31 L 86 31 C 86 33.7615 83.7883 36 81.06 36 L 25.94 36 C 23.2117 36 21 33.7615 21 31 L 21 31 C 21 28.2385 23.2117 26 25.94 26 L 81.06 26 C 83.7883 26 86 28.2385 86 31 Z" fill="#cccccc"/>				<path d="M 86.6304 34.51 L 86.6709 34.4678 C 87.5366 33.5456 87.9903 32.3636 88.035 31.175 C 88.0845 29.8583 87.6317 28.533 86.6709 27.5322 L 86.6304 27.49 L 69.4466 9.5902 C 67.5455 7.6099 64.4316 7.5684 62.4912 9.5088 C 60.5446 11.4554 60.5256 14.6484 62.449 16.629 L 76.405 31 L 62.449 45.371 C 60.5256 47.3516 60.5446 50.5446 62.4912 52.4912 C 64.4316 54.4316 67.5455 54.3901 69.4466 52.4098 L 86.6304 34.51 Z" fill="#cccccc"/>			</g>			<g>				<path d="M 13.0387 69 L 13.0387 69 C 13.0387 71.7615 15.2503 74 17.9787 74 L 73.0986 74 C 75.827 74 78.0387 71.7615 78.0387 69 L 78.0387 69 C 78.0387 66.2385 75.827 64 73.0986 64 L 17.9787 64 C 15.2503 64 13.0387 66.2385 13.0387 69 Z" fill="#cccccc"/>				<path d="M 12.4083 72.51 L 12.3677 72.4678 C 11.502 71.5456 11.0483 70.3636 11.0037 69.175 C 10.9542 67.8583 11.407 66.533 12.3677 65.5322 L 12.4083 65.49 L 29.592 47.5902 C 31.4931 45.6099 34.607 45.5684 36.5474 47.5088 C 38.4941 49.4554 38.5131 52.6484 36.5897 54.629 L 22.6337 69 L 36.5897 83.371 C 38.5131 85.3516 38.4941 88.5446 36.5474 90.4912 C 34.607 92.4316 31.4931 92.3901 29.592 90.4098 L 12.4083 72.51 Z" fill="#cccccc"/>			</g>		</g>		<g visibility="hidden">			<g>				<path d="M 40.1848 86.2941 L 40.1848 86.2941 C 38.2258 84.335 38.2058 81.1789 40.1401 79.2446 L 72.1295 47.2553 C 74.0638 45.3209 77.2199 45.3409 79.1789 47.3 L 79.1789 47.3 C 81.1379 49.259 81.1579 52.4151 79.2236 54.3494 L 47.2343 86.3387 C 45.2999 88.2731 42.1438 88.2531 40.1848 86.2941 Z" fill="#cccccc"/>				<path d="M 37.2478 84.2509 L 37.249 84.3096 C 37.2895 85.5776 37.8064 86.7378 38.6179 87.6127 C 39.5168 88.5818 40.7781 89.201 42.1692 89.2298 L 42.228 89.231 L 67.1093 89.7464 C 69.862 89.8034 72.0992 87.6252 72.0983 84.8729 C 72.0975 82.1117 69.8458 79.8332 67.077 79.7918 L 46.9875 79.4914 L 46.6871 59.4018 C 46.6457 56.633 44.3671 54.3814 41.606 54.3805 C 38.8537 54.3797 36.6755 56.6169 36.7325 59.3696 L 37.2478 84.2509 Z" fill="#cccccc"/>			</g>			<path d="M 88.8152 13.7059 L 88.8152 13.7059 C 86.8562 11.7469 83.7001 11.7269 81.7657 13.6613 L 49.7764 45.6506 C 47.8421 47.5849 47.8621 50.741 49.8211 52.7 L 49.8211 52.7 C 51.7801 54.6591 54.9362 54.6791 56.8705 52.7447 L 88.8599 20.7554 C 90.7942 18.8211 90.7742 15.665 88.8152 13.7059 Z" fill="#cccccc"/>			<path d="M 82.772 11.769 L 82.8308 11.7702 C 84.0987 11.8106 85.2589 12.3275 86.1338 13.139 C 87.103 14.038 87.7221 15.2993 87.751 16.6904 L 87.7522 16.7491 L 88.2675 41.6304 C 88.3245 44.3831 86.1463 46.6203 83.394 46.6195 C 80.6329 46.6186 78.3543 44.367 78.3129 41.5982 L 78.0125 21.5086 L 57.9229 21.2082 C 55.1541 21.1668 52.9025 18.8883 52.9017 16.1271 C 52.9008 13.3748 55.138 11.1966 57.8907 11.2536 L 82.772 11.769 Z" fill="#cccccc"/>		</g>		<g visibility="hidden">			<g>				<path d="M 65.1831 16.599 L 65.1831 16.599 C 67.5787 17.9833 68.4157 20.998 67.0527 23.3351 L 49.4049 53.5955 C 48.0259 55.9601 44.948 56.7567 42.5302 55.3724 L 42.5302 55.3724 C 40.1111 53.9874 39.2719 50.9459 40.6559 48.5813 L 58.3667 18.3211 C 59.7346 15.984 62.7863 15.2141 65.1831 16.599 Z" fill="#cccccc"/>				<path d="M 72.1543 11.5482 L 72.1393 11.4914 C 71.8025 10.2654 71.0338 9.2644 70.0481 8.6162 C 68.9537 7.8965 67.5916 7.6122 66.2439 7.9415 L 66.187 7.9554 L 41.7963 13.914 C 39.0644 14.5814 37.4394 17.3236 38.1796 20.0317 C 38.9188 22.7355 41.7307 24.3595 44.4474 23.6665 L 63.9627 18.6879 L 69.0218 37.7232 C 69.7056 40.2959 72.3592 41.7862 74.937 41.059 C 77.5005 40.3359 79.0259 37.689 78.3558 35.14 L 72.1543 11.5482 Z" fill="#cccccc"/>			</g>			<g>				<path d="M 49.6686 83.3741 L 49.6686 83.3741 C 47.2491 81.9948 46.3994 78.9617 47.7707 76.6018 L 65.3213 46.3997 C 66.6769 44.0669 69.7191 43.2961 72.1165 44.6754 L 72.1165 44.6754 C 74.5127 46.0541 75.3602 49.0608 74.0095 51.3935 L 56.5215 81.5955 C 55.155 83.9554 52.087 84.7528 49.6686 83.3741 Z" fill="#cccccc"/>				<path d="M 42.6285 88.529 L 42.6437 88.5864 C 42.9862 89.8244 43.7661 90.8307 44.7654 91.4777 C 45.8745 92.1958 47.2531 92.4703 48.615 92.1241 L 48.6725 92.1095 L 73.0968 85.9014 C 75.8066 85.2126 77.3996 82.4596 76.6472 79.7596 C 75.8964 77.0652 73.0972 75.458 70.4026 76.1623 L 50.8939 81.2618 L 45.7645 62.1639 C 45.0726 59.5881 42.3974 58.0946 39.7966 58.8209 C 37.2052 59.5446 35.6601 62.2019 36.3381 64.7632 L 42.6285 88.529 Z" fill="#cccccc"/>			</g>		</g>		<g visibility="hidden">			<path d="M 105 86 L 105 86 C 107.7615 86 110 88.2117 110 90.94 L 110 146.06 C 110 148.7883 107.7615 151 105 151 L 105 151 C 102.2385 151 100 148.7883 100 146.06 L 100 90.94 C 100 88.2117 102.2385 86 105 86 Z" fill="#cccccc"/>			<path d="M 58.5068 1.0015 L 58.5068 1.0015 C 60.99 1.5533 62.5056 3.9465 61.8914 6.3652 L 48.3328 59.7519 C 47.5993 62.6401 44.7672 64.5535 42.0083 64.0017 L 42.0083 64.0017 C 39.2443 63.4489 37.637 60.6394 38.4166 57.7504 L 52.8224 4.3639 C 53.4749 1.9459 56.0194 0.4488 58.5068 1.0015 Z" fill="#cccccc"/>			<path d="M 50.4725 98.3125 L 50.4725 98.3125 C 48.0139 97.7588 46.5134 95.3573 47.1215 92.9303 L 60.5452 39.3596 C 61.2715 36.4614 64.0754 34.5415 66.8069 35.0952 L 66.8069 35.0952 C 69.5434 35.6499 71.1347 38.469 70.3629 41.368 L 56.1003 94.9385 C 55.4543 97.3648 52.9351 98.8671 50.4725 98.3125 Z" fill="#cccccc"/>			<path d="M 70.5068 93.0015 L 70.5068 93.0015 C 72.99 93.5533 74.5056 95.9465 73.8914 98.3652 L 60.3328 151.7519 C 59.5993 154.6401 56.7672 156.5535 54.0083 156.0017 L 54.0083 156.0017 C 51.2443 155.4489 49.637 152.6394 50.4166 149.7504 L 64.8224 96.3639 C 65.4749 93.9459 68.0194 92.4488 70.5068 93.0015 Z" fill="#cccccc"/>			<path d="M 109 107 L 109 107 C 111.7615 107 114 109.2117 114 111.94 L 114 167.06 C 114 169.7883 111.7615 172 109 172 L 109 172 C 106.2385 172 104 169.7883 104 167.06 L 104 111.94 C 104 109.2117 106.2385 107 109 107 Z" fill="#cccccc"/>			<g>				<path d="M 93 32 L 93 32 C 95.7615 32 98 34.2117 98 36.94 L 98 72.06 C 98 74.7883 95.7615 77 93 77 L 93 77 C 90.2385 77 88 74.7883 88 72.06 L 88 36.94 C 88 34.2117 90.2385 32 93 32 Z" fill="#cccccc"/>				<path d="M 96.4691 24.0555 L 96.4276 24.0132 C 95.519 23.1102 94.351 22.6232 93.1735 22.5553 C 91.8665 22.4799 90.5485 22.9215 89.5528 23.8926 L 89.5107 23.9336 L 71.5711 41.4295 C 69.5713 43.3798 69.5632 46.5766 71.5582 48.5582 C 73.5497 50.5361 76.7703 50.5408 78.7468 48.5801 L 93 34.4403 L 106.9225 48.497 C 108.8022 50.3949 111.8396 50.3623 113.702 48.4354 C 115.5558 46.5173 115.5483 43.4407 113.69 41.5526 L 96.4691 24.0555 Z" fill="#cccccc"/>			</g>			<path d="M 61.3891 2.743 L 61.3587 2.692 C 60.689 1.5992 59.6575 0.8555 58.513 0.5195 C 57.2476 0.1481 55.844 0.2757 54.6235 0.9875 L 54.572 1.0175 L 33.1592 13.5049 C 30.8375 14.8589 30.0155 17.8707 31.3276 20.2445 C 32.6467 22.6306 35.6211 23.4698 37.9669 22.1065 L 55.273 12.0479 L 65.5679 29.665 C 66.9993 32.1144 70.1548 32.9634 72.6111 31.5484 C 75.0694 30.1321 75.8768 26.9961 74.4195 24.5566 L 61.3891 2.743 Z" fill="#cccccc"/>			<path d="M 47.6188 96.565 L 47.6489 96.6162 C 48.312 97.7127 49.3332 98.459 50.4663 98.7962 C 51.7191 99.1689 53.1088 99.0408 54.3172 98.3266 L 54.3681 98.2965 L 75.568 85.766 C 77.8666 84.4074 78.6804 81.3851 77.3813 79.0032 C 76.0755 76.6088 73.1306 75.7667 70.8082 77.1348 L 53.6741 87.228 L 43.4816 69.5502 C 42.0645 67.0924 38.9403 66.2405 36.5085 67.6603 C 34.0745 69.0814 33.2752 72.2283 34.718 74.6762 L 47.6188 96.565 Z" fill="#cccccc"/>		</g>		<g visibility="hidden">			<path id="Ellipse" d="M 22 43 C 22 40.2385 24.2385 38 27 38 C 29.7615 38 32 40.2385 32 43 C 32 45.7615 29.7615 48 27 48 C 24.2385 48 22 45.7615 22 43 Z" fill="#cccccc"/>			<path id="Ellipse2" d="M 22 57 C 22 54.2385 24.2385 52 27 52 C 29.7615 52 32 54.2385 32 57 C 32 59.7615 29.7615 62 27 62 C 24.2385 62 22 59.7615 22 57 Z" fill="#cccccc"/>		</g>		<g visibility="hidden">			<g>				<path d="M 73.25 5.8214 L 73.25 5.8214 C 73.9404 8.4843 72.3574 11.2303 69.7144 11.955 L 40.5356 19.9557 C 37.8926 20.6804 35.1904 19.1093 34.5 16.4464 L 34.5 16.4464 C 33.8096 13.7836 35.3926 11.0375 38.0356 10.3128 L 67.2144 2.3122 C 69.8574 1.5875 72.5596 3.1586 73.25 5.8214 Z" fill="#cccccc"/>				<path d="M 77.1563 40.8996 L 77.1563 40.8996 C 74.4811 41.6331 71.7596 40.095 71.0775 37.4641 L 63.5475 8.4198 C 62.8654 5.7889 64.4811 3.0616 67.1563 2.3281 L 67.1563 2.3281 C 69.8314 1.5946 72.5529 3.1327 73.235 5.7636 L 80.765 34.8079 C 81.4471 37.4387 79.8314 40.166 77.1563 40.8996 Z" fill="#cccccc"/>				<path d="M 38.5781 58.1908 L 38.5781 58.1908 C 36.2223 56.8403 35.4253 53.8414 36.7979 51.4925 L 64.1708 4.6526 C 65.5435 2.3037 68.566 1.4943 70.9219 2.8449 L 70.9219 2.8449 C 73.2777 4.1954 74.0748 7.1943 72.7021 9.5432 L 45.3292 56.3831 C 43.9565 58.732 40.934 59.5414 38.5781 58.1908 Z" fill="#cccccc"/>			</g>			<g>				<path d="M 29.749 94.1748 L 29.749 94.1748 C 29.0581 91.5098 30.6423 88.7616 33.2874 88.0363 L 62.4892 80.0294 C 65.1344 79.3041 67.8387 80.8764 68.5296 83.5414 L 68.5296 83.5414 C 69.2205 86.2063 67.6363 88.9546 64.9912 89.6798 L 35.7894 97.6868 C 33.1443 98.4121 30.4399 96.8397 29.749 94.1748 Z" fill="#cccccc"/>				<path d="M 25.8397 59.069 L 25.8397 59.069 C 28.517 58.3349 31.2406 59.8742 31.9232 62.5071 L 39.4592 91.5743 C 40.1418 94.2073 38.5248 96.9367 35.8476 97.6708 L 35.8476 97.6708 C 33.1703 98.4049 30.4466 96.8656 29.764 94.2327 L 22.2281 65.1655 C 21.5455 62.5325 23.1624 59.8031 25.8397 59.069 Z" fill="#cccccc"/>				<path d="M 64.4482 41.764 L 64.4482 41.764 C 66.806 43.1156 67.6036 46.1169 66.2298 48.4677 L 38.8354 95.3445 C 37.4616 97.6953 34.4367 98.5053 32.079 97.1537 L 32.079 97.1537 C 29.7212 95.8021 28.9236 92.8008 30.2974 90.4501 L 57.6919 43.5732 C 59.0656 41.2224 62.0905 40.4124 64.4482 41.764 Z" fill="#cccccc"/>			</g>		</g>		<g visibility="hidden">			<g>				<path d="M 79 11 L 79 11 C 79 13.7615 76.7883 16 74.06 16 L 43.94 16 C 41.2117 16 39 13.7615 39 11 L 39 11 C 39 8.2385 41.2117 6 43.94 6 L 74.06 6 C 76.7883 6 79 8.2385 79 11 Z" fill="#000000"/>				<path d="M 74 46 L 74 46 C 71.2385 46 69 43.7883 69 41.06 L 69 10.94 C 69 8.2117 71.2385 6 74 6 L 74 6 C 76.7615 6 79 8.2117 79 10.94 L 79 41.06 C 79 43.7883 76.7615 46 74 46 Z" fill="#000000"/>				<path d="M 32.5 52.5 L 32.5 52.5 C 30.567 50.567 30.5482 47.4518 32.458 45.542 L 70.542 7.458 C 72.4518 5.5482 75.567 5.567 77.5 7.5 L 77.5 7.5 C 79.433 9.433 79.4518 12.5482 77.542 14.458 L 39.458 52.542 C 37.5482 54.4518 34.433 54.433 32.5 52.5 Z" fill="#000000"/>			</g>			<g>				<path d="M 18 87.9961 L 18 87.9961 C 18 85.2324 20.2134 82.9921 22.9439 82.9921 L 53.0877 82.9921 C 55.8181 82.9921 58.0316 85.2324 58.0316 87.9961 L 58.0316 87.9961 C 58.0316 90.7597 55.8181 93 53.0877 93 L 22.9439 93 C 20.2134 93 18 90.7597 18 87.9961 Z" fill="#000000"/>				<path d="M 23.0039 52.9684 L 23.0039 52.9684 C 25.7676 52.9684 28.0079 55.1819 28.0079 57.9123 L 28.0079 88.0561 C 28.0079 90.7866 25.7676 93 23.0039 93 L 23.0039 93 C 20.2403 93 18 90.7866 18 88.0561 L 18 57.9123 C 18 55.1819 20.2403 52.9684 23.0039 52.9684 Z" fill="#000000"/>				<path d="M 64.5367 46.4633 L 64.5367 46.4633 C 66.4712 48.3979 66.4901 51.5155 64.5787 53.4268 L 26.4647 91.5408 C 24.5533 93.4522 21.4357 93.4334 19.5012 91.4988 L 19.5012 91.4988 C 17.5666 89.5643 17.5478 86.4467 19.4592 84.5353 L 57.5732 46.4213 C 59.4845 44.5099 62.6021 44.5288 64.5367 46.4633 Z" fill="#000000"/>			</g>			<path d="M 71.4 62.6 C 73.3883 60.6117 76.567 60.567 78.5 62.5 C 80.433 64.433 80.3883 67.6117 78.4 69.6 C 76.4118 71.5882 73.233 71.633 71.3 69.7 C 69.367 67.767 69.4118 64.5882 71.4 62.6 ZM 60.6 73.4 C 62.5882 71.4118 65.767 71.367 67.7 73.3 C 69.633 75.233 69.5882 78.4118 67.6 80.4 C 65.6117 82.3883 62.433 82.433 60.5 80.5 C 58.567 78.567 58.6117 75.3883 60.6 73.4 Z" fill="#000000"/>			<path d="M 29.4 18.6 C 31.3883 16.6117 34.567 16.567 36.5 18.5 C 38.433 20.433 38.3883 23.6117 36.4 25.6 C 34.4118 27.5882 31.233 27.633 29.3 25.7 C 27.367 23.767 27.4118 20.5882 29.4 18.6 ZM 18.6 29.4 C 20.5882 27.4118 23.767 27.367 25.7 29.3 C 27.633 31.233 27.5882 34.4118 25.6 36.4 C 23.6117 38.3883 20.433 38.433 18.5 36.5 C 16.567 34.567 16.6117 31.3883 18.6 29.4 Z" fill="#000000"/>		</g>		<path visibility="hidden" d="M 29.4 18.6 C 27.4117 20.5882 27.367 23.767 29.3 25.7 C 31.233 27.633 34.4117 27.5882 36.4 25.6 C 38.3882 23.6117 38.433 20.433 36.5 18.5 C 34.567 16.567 31.3882 16.6117 29.4 18.6 ZM 18.6 29.4 C 16.6118 31.3883 16.567 34.567 18.5 36.5 C 20.433 38.433 23.6118 38.3883 25.6 36.4 C 27.5883 34.4118 27.633 31.233 25.7 29.3 C 23.767 27.367 20.5883 27.4118 18.6 29.4 ZM 71.4 62.6 C 69.4117 64.5882 69.367 67.767 71.3 69.7 C 73.233 71.633 76.4117 71.5882 78.4 69.6 C 80.3882 67.6117 80.433 64.433 78.5 62.5 C 76.567 60.567 73.3882 60.6117 71.4 62.6 ZM 60.6 73.4 C 58.6118 75.3883 58.567 78.567 60.5 80.5 C 62.433 82.433 65.6118 82.3883 67.6 80.4 C 69.5883 78.4118 69.633 75.233 67.7 73.3 C 65.767 71.367 62.5883 71.4118 60.6 73.4 ZM 18 87.9961 L 18 88.0561 C 18.0142 89.3283 18.4995 90.4853 19.285 91.36 C 20.1895 92.3673 21.4926 93 22.9439 93 L 23.0039 93 L 53.0877 93 C 55.8181 93 58.0316 90.7597 58.0316 87.9961 C 58.0316 85.2324 55.8181 82.9921 53.0877 82.9921 L 35.015 82.99 L 64.5787 53.4268 C 66.4901 51.5155 66.4713 48.3979 64.5367 46.4633 C 62.6021 44.5288 59.4845 44.5099 57.5732 46.4213 L 28.01 75.985 L 28.0079 57.9123 C 28.0079 55.1819 25.7676 52.9684 23.0039 52.9684 C 20.2403 52.9684 18 55.1819 18 57.9123 L 18 87.9961 ZM 79 11 L 79 10.94 C 78.985 9.6239 78.4698 8.4291 77.635 7.545 C 76.7354 6.5923 75.4651 6 74.06 6 L 74 6 L 43.94 6 C 41.2117 6 39 8.2385 39 11 C 39 13.7615 41.2117 16 43.94 16 L 62 16 L 32.458 45.542 C 30.5482 47.4518 30.567 50.567 32.5 52.5 C 34.433 54.433 37.5482 54.4518 39.458 52.542 L 69 23 L 69 41.06 C 69 43.7883 71.2385 46 74 46 C 76.7615 46 79 43.7883 79 41.06 L 79 11 Z" fill="#000000"/>		<path d="M 89 19.9233 L 89.06 19.9233 C 90.3761 19.9383 91.5709 20.4548 92.455 21.2917 C 93.4077 22.1936 94 23.4671 94 24.8757 L 94 24.9359 L 94 55.0715 C 94 57.8067 91.7615 60.0239 89 60.0239 C 86.2385 60.0239 84 57.8067 84 55.0715 L 84 36.966 L 54.458 66.5823 C 52.5482 68.497 49.433 68.4781 47.5 66.5402 C 45.567 64.6024 45.5482 61.4794 47.458 59.5647 L 77 29.9484 L 58.94 29.9484 C 56.2117 29.9484 54 27.7043 54 24.9359 C 54 22.1674 56.2117 19.9233 58.94 19.9233 L 89 19.9233 ZM 12.0039 81.0767 L 11.9439 81.0767 C 10.6717 81.0625 9.5147 80.5759 8.64 79.7885 C 7.6327 78.8817 7 77.5753 7 76.1204 L 7 76.0602 L 7 45.9008 C 7 43.1634 9.2403 40.9445 12.0039 40.9445 C 14.7676 40.9445 17.0079 43.1634 17.0079 45.9008 L 17.01 64.0189 L 46.5732 34.3808 C 48.4845 32.4647 51.6021 32.4836 53.5367 34.423 C 55.4712 36.3624 55.4901 39.4878 53.5787 41.404 L 24.015 71.0415 L 42.0877 71.0436 C 44.8181 71.0436 47.0316 73.2896 47.0316 76.0602 C 47.0316 78.8308 44.8181 81.0767 42.0877 81.0767 L 12.0039 81.0767 ZM 26.6 38.3696 C 24.6117 40.3628 21.433 40.4077 19.5 38.4698 C 17.567 36.5319 17.6117 33.3452 19.6 31.352 C 21.5882 29.3587 24.767 29.3138 26.7 31.2517 C 28.633 33.1896 28.5883 36.3763 26.6 38.3696 ZM 37.4 27.5424 C 35.4117 29.5357 32.233 29.5805 30.3 27.6427 C 28.367 25.7048 28.4117 22.5181 30.4 20.5248 C 32.3882 18.5316 35.567 18.4867 37.5 20.4245 C 39.433 22.3624 39.3882 25.5492 37.4 27.5424 ZM 70.6 80.4752 C 68.6118 82.4684 65.433 82.5133 63.5 80.5755 C 61.567 78.6376 61.6118 75.4508 63.6 73.4576 C 65.5883 71.4643 68.767 71.4195 70.7 73.3573 C 72.633 75.2952 72.5883 78.4819 70.6 80.4752 ZM 81.4 69.648 C 79.4117 71.6413 76.233 71.6862 74.3 69.7483 C 72.367 67.8104 72.4117 64.6237 74.4 62.6304 C 76.3882 60.6372 79.567 60.5923 81.5 62.5302 C 83.433 64.4681 83.3882 67.6548 81.4 69.648 Z" fill="#000000"/>	</g></svg>